<svg width="89.000000" height="34.000000" viewBox="0 0 89 34" fill="none" xmlns="http://www.w3.org/2000/svg" xmlns:xlink="http://www.w3.org/1999/xlink">
	<desc>
			Created with Pixso.
	</desc>
	<defs/>
	<path id="Wallet" d="M50.86 25L50.86 7.24L47.5 7.24L47.5 25L50.86 25ZM57.53 25L57.53 7.24L54.17 7.24L54.17 25L57.53 25ZM24.36 25L29.04 8.24L25.42 8.24L22.44 21.18L19.23 8.24L15.48 8.24L12.07 21.25L9.13 8.24L5.52 8.24L10.03 25.02L13.97 25L17.26 13.07L20.41 25L24.36 25ZM79.56 20.89L79.56 14.46L82.54 14.46L82.54 11.7L79.56 11.7L79.56 8.41L76.18 8.41L76.18 11.7L74.59 11.7L74.59 14.46L76.18 14.46L76.18 20.86Q76.18 22.87 77.18 23.9Q78.25 25 80.43 25L82.54 25L82.54 22.16L80.98 22.16Q80.21 22.16 79.88 21.87Q79.56 21.56 79.56 20.89ZM31.16 14.72Q30.36 16.28 30.36 18.3Q30.36 20.34 31.16 21.91Q31.8 23.15 32.79 23.95Q33.06 24.17 33.35 24.35Q33.91 24.7 34.52 24.91Q35.41 25.21 36.41 25.21Q37.9 25.21 39.03 24.6Q40.18 23.99 40.83 23.05L40.83 25L44.21 25L44.21 11.7L40.83 11.7L40.83 13.59Q40.15 12.68 39.03 12.09Q37.92 11.48 36.43 11.48Q35.31 11.48 34.32 11.85Q33.82 12.04 33.35 12.33Q33.06 12.5 32.79 12.72Q31.8 13.5 31.16 14.72ZM73.11 19.35Q73.2 18.78 73.2 18.06Q73.2 16.17 72.42 14.69Q72.39 14.65 72.37 14.61Q71.95 13.85 71.35 13.26Q70.78 12.7 70.04 12.3Q69.91 12.22 69.77 12.16Q68.37 11.48 66.65 11.48Q64.73 11.48 63.24 12.29Q63.21 12.31 63.17 12.33Q62.54 12.68 62.02 13.16Q61.31 13.82 60.82 14.72Q59.98 16.28 59.98 18.34Q59.98 20.39 60.83 21.95Q61.3 22.82 61.99 23.47Q62.53 23.98 63.21 24.36Q63.41 24.47 63.61 24.57Q64.98 25.21 66.65 25.21Q68.66 25.21 70.14 24.32Q70.41 24.16 70.65 23.98Q71.56 23.29 72.14 22.4Q72.61 21.67 72.87 20.82L69.24 20.82Q68.87 21.56 68.28 21.97Q67.58 22.43 66.58 22.43Q65.75 22.43 65.08 22.09Q64.71 21.91 64.39 21.61Q64.24 21.47 64.11 21.31Q63.49 20.54 63.39 19.35L73.11 19.35ZM69.36 15.71Q69.71 16.31 69.72 17.1L63.41 17.1Q63.58 15.95 64.22 15.24Q64.33 15.11 64.45 15Q64.73 14.76 65.04 14.59Q65.7 14.24 66.55 14.24Q67.49 14.24 68.21 14.63Q68.52 14.79 68.78 15.02Q69.14 15.33 69.36 15.71ZM40.35 16.25Q40.83 17.13 40.83 18.34Q40.83 19.57 40.35 20.45Q40.01 21.06 39.51 21.47Q39.3 21.65 39.05 21.79Q38.64 22.03 38.19 22.15Q37.76 22.26 37.3 22.26Q36.92 22.26 36.55 22.17Q36.05 22.06 35.58 21.78Q35.44 21.69 35.3 21.59Q34.69 21.13 34.29 20.4Q33.8 19.5 33.8 18.3Q33.8 17.1 34.29 16.22Q34.7 15.48 35.33 15.05Q35.44 14.97 35.57 14.89Q35.89 14.71 36.23 14.6Q36.74 14.44 37.3 14.44Q37.76 14.44 38.19 14.55Q38.64 14.67 39.05 14.91Q39.28 15.04 39.49 15.21Q40 15.62 40.35 16.25Z" fill="#FFFFFF" fill-opacity="1.000000" fill-rule="evenodd"/>
</svg>
