<svg width="70.000000" height="70.000000" viewBox="0 0 70 70" fill="none" xmlns="http://www.w3.org/2000/svg" xmlns:xlink="http://www.w3.org/1999/xlink">
	<desc>
			Created with Pixso.
	</desc>
	<defs>
		<linearGradient id="paint_linear_2_330_0" x1="14.846146" y1="-0.000015" x2="70.304214" y2="70.314087" gradientUnits="userSpaceOnUse">
			<stop stop-color="#BA99FD"/>
			<stop offset="1.000000" stop-color="#CEC0FD"/>
		</linearGradient>
	</defs>
	<path id="Vector" d="M69.7 34.46C69.41 15.12 53.78 -0.3 34.81 0C15.83 0.3 0.69 16.21 0.98 35.54C1.27 54.87 16.9 70.29 35.87 69.99C54.85 69.69 70 53.79 69.7 34.46Z" fill="url(#paint_linear_2_330_0)" fill-opacity="1.000000" fill-rule="nonzero"/>
	<path id="Vector" d="M7.85 35.5C7.85 50.68 19.94 63 34.85 63C49.76 63 61.85 50.68 61.85 35.5C61.85 20.31 49.76 8 34.85 8C19.94 8 7.85 20.31 7.85 35.5Z" fill="#B897FD" fill-opacity="1.000000" fill-rule="evenodd"/>
	<path id="Vector" d="M33.53 22.89L33.56 21L37.15 21.04L37.12 22.94C40.22 23.56 41.78 25.76 41.72 29.22L41.7 30.02L37.55 29.96L37.57 28.9C37.6 27.08 36.82 26.38 35.42 26.36C34.03 26.34 33.22 27.02 33.19 28.84C33.1 34.08 41.67 34.45 41.55 41.72C41.49 45.17 39.82 47.37 36.7 47.91L36.67 49.76L33.08 49.71L33.11 47.85C29.97 47.23 28.41 44.99 28.47 41.54L28.5 39.79L32.65 39.85L32.61 41.85C32.58 43.67 33.45 44.34 34.84 44.36C36.24 44.37 37.13 43.73 37.16 41.91C37.25 36.68 28.68 36.3 28.8 29.04C28.86 25.62 30.45 23.46 33.53 22.89Z" fill="#3B3B3B" fill-opacity="1.000000" fill-rule="nonzero"/>
</svg>
