<svg width="70.000000" height="70.000000" viewBox="0 0 70 70" fill="none" xmlns="http://www.w3.org/2000/svg" xmlns:xlink="http://www.w3.org/1999/xlink">
	<desc>
			Created with Pixso.
	</desc>
	<defs>
		<linearGradient id="paint_linear_2_350_0" x1="50.362228" y1="43.453568" x2="50.362228" y2="50.751251" gradientUnits="userSpaceOnUse">
			<stop stop-color="#FF4C54"/>
			<stop offset="1.000000" stop-color="#BE3F45"/>
		</linearGradient>
		<linearGradient id="paint_linear_2_351_0" x1="50.358978" y1="48.805500" x2="50.358978" y2="43.769726" gradientUnits="userSpaceOnUse">
			<stop stop-color="#FF4C54"/>
			<stop offset="1.000000" stop-color="#BE3F45"/>
		</linearGradient>
	</defs>
	<path id="Vector" d="M64.33 64.17L5.66 64.17C2.53 64.17 0 61.86 0 59.02L0 14.55C0 11.71 2.53 9.4 5.66 9.4L64.33 9.4C67.46 9.4 70 11.71 70 14.55L70 59.02C70 61.86 67.46 64.17 64.33 64.17Z" fill="#F8D57E" fill-opacity="1.000000" fill-rule="nonzero"/>
	<path id="Vector" d="M63.02 62.95L6.96 62.95C3.98 62.95 1.55 60.75 1.55 58.03L1.55 15.55C1.55 12.83 3.98 10.63 6.96 10.63L63.02 10.63C66.01 10.63 68.43 12.83 68.43 15.55L68.43 58.03C68.43 60.75 66.01 62.95 63.02 62.95Z" fill="#E1C379" fill-opacity="1.000000" fill-rule="nonzero"/>
	<path id="Vector" d="M66.2 23.79L52.09 1.54C51.15 0.06 49.06 -0.45 47.43 0.41L2.94 23.79L66.2 23.79Z" fill="#009379" fill-opacity="1.000000" fill-rule="nonzero"/>
	<path id="Union" d="" fill="#FF6250" fill-opacity="1.000000" fill-rule="nonzero"/>
	<path id="Vector" d="M54.66 69.96L5.52 64.76C2.37 64.43 0 62 0 59.12L0 14.18C0 15.14 0.79 15.96 1.84 16.07L56.1 21.8C59.25 22.13 61.63 24.56 61.63 27.45L61.63 64.31C61.63 67.71 58.37 70.35 54.66 69.96Z" fill="#F8D57E" fill-opacity="1.000000" fill-rule="nonzero"/>
	<path id="Vector" d="M4.4 21.19C4.36 21.19 4.32 21.18 4.27 21.18L2.03 20.95C1.4 20.89 0.96 20.38 1.02 19.82C1.09 19.25 1.65 18.85 2.27 18.91L4.52 19.13C5.14 19.19 5.59 19.7 5.52 20.27C5.46 20.79 4.97 21.19 4.4 21.19Z" fill="#F8D57E" fill-opacity="1.000000" fill-rule="nonzero"/>
	<path id="Vector" d="M50.6 66.56C50.56 66.56 50.51 66.55 50.46 66.55L46.09 66.04C45.47 65.97 45.03 65.46 45.11 64.89C45.19 64.33 45.76 63.93 46.37 64L50.75 64.51C51.36 64.58 51.8 65.09 51.72 65.66C51.65 66.18 51.16 66.56 50.6 66.56ZM54.91 66.05C54.48 66.05 54.07 65.83 53.88 65.46C53.62 64.94 53.86 64.33 54.42 64.09C55.57 63.59 56.43 62.78 56.79 61.85C57 61.31 57.64 61.03 58.23 61.21C58.82 61.4 59.13 61.99 58.93 62.53C58.36 64 57.11 65.21 55.39 65.95C55.23 66.02 55.07 66.05 54.91 66.05ZM41.86 65.54C41.82 65.54 41.77 65.54 41.72 65.54L37.35 65.03C36.73 64.96 36.29 64.44 36.37 63.88C36.45 63.32 37.01 62.92 37.63 62.99L42 63.49C42.62 63.57 43.06 64.08 42.98 64.65C42.91 65.16 42.42 65.54 41.86 65.54ZM33.12 64.53C33.08 64.53 33.03 64.53 32.98 64.53L28.61 64.02C27.99 63.95 27.55 63.43 27.63 62.87C27.71 62.3 28.27 61.91 28.89 61.98L33.26 62.48C33.88 62.55 34.32 63.07 34.24 63.63C34.17 64.15 33.68 64.53 33.12 64.53ZM24.38 63.52C24.33 63.52 24.29 63.52 24.24 63.51L19.87 63.01C19.25 62.94 18.81 62.42 18.89 61.86C18.97 61.29 19.53 60.9 20.15 60.96L24.52 61.47C25.14 61.54 25.58 62.06 25.5 62.62C25.43 63.14 24.94 63.52 24.38 63.52ZM15.64 62.51C15.59 62.51 15.55 62.51 15.5 62.5L11.13 62C10.51 61.92 10.07 61.41 10.15 60.84C10.23 60.28 10.79 59.88 11.41 59.95L15.78 60.46C16.4 60.53 16.84 61.05 16.76 61.61C16.69 62.13 16.2 62.51 15.64 62.51ZM58.11 59.23C57.49 59.23 56.98 58.77 56.98 58.2L56.98 54.19C56.98 53.62 57.49 53.16 58.11 53.16C58.74 53.16 59.24 53.62 59.24 54.19L59.24 58.2C59.24 58.77 58.74 59.23 58.11 59.23ZM58.11 51.21C57.49 51.21 56.98 50.75 56.98 50.18L56.98 46.18C56.98 45.61 57.49 45.15 58.11 45.15C58.74 45.15 59.24 45.61 59.24 46.18L59.24 50.18C59.24 50.75 58.74 51.21 58.11 51.21ZM58.11 43.2C57.49 43.2 56.98 42.73 56.98 42.17L56.98 38.16C56.98 37.59 57.49 37.13 58.11 37.13C58.74 37.13 59.24 37.59 59.24 38.16L59.24 42.17C59.24 42.73 58.74 43.2 58.11 43.2ZM58.11 35.18C57.49 35.18 56.98 34.72 56.98 34.15L56.98 30.14C56.98 29.57 57.49 29.11 58.11 29.11C58.74 29.11 59.24 29.57 59.24 30.14L59.24 34.15C59.24 34.72 58.74 35.18 58.11 35.18ZM56.53 27.57C56.25 27.57 55.97 27.48 55.75 27.29C54.91 26.56 53.75 26.1 52.48 25.99L52.45 25.99C51.83 25.93 51.38 25.42 51.44 24.85C51.51 24.29 52.07 23.88 52.69 23.94L52.71 23.94C54.47 24.1 56.11 24.76 57.31 25.79C57.76 26.18 57.78 26.83 57.35 27.25C57.13 27.46 56.83 27.57 56.53 27.57ZM48.19 25.55C48.15 25.55 48.11 25.55 48.06 25.55L43.69 25.11C43.06 25.05 42.62 24.54 42.68 23.97C42.75 23.41 43.31 23 43.93 23.06L48.31 23.5C48.93 23.56 49.38 24.07 49.31 24.64C49.25 25.16 48.76 25.55 48.19 25.55ZM39.43 24.68C39.39 24.68 39.35 24.68 39.31 24.67L34.93 24.23C34.31 24.17 33.86 23.66 33.93 23.1C33.99 22.53 34.55 22.13 35.17 22.19L39.55 22.63C40.17 22.69 40.62 23.2 40.55 23.76C40.49 24.29 40 24.68 39.43 24.68ZM30.67 23.8C30.63 23.8 30.59 23.8 30.55 23.8L26.17 23.36C25.55 23.3 25.1 22.79 25.17 22.22C25.24 21.66 25.8 21.25 26.42 21.31L30.8 21.75C31.42 21.81 31.86 22.32 31.8 22.88C31.73 23.41 31.24 23.8 30.67 23.8ZM21.91 22.93C21.87 22.93 21.83 22.92 21.79 22.92L17.41 22.48C16.79 22.42 16.34 21.91 16.41 21.35C16.48 20.78 17.04 20.37 17.66 20.44L22.04 20.87C22.66 20.94 23.11 21.44 23.04 22.01C22.97 22.54 22.48 22.93 21.91 22.93ZM13.16 22.05C13.12 22.05 13.07 22.05 13.03 22.04L8.65 21.61C8.03 21.54 7.58 21.03 7.65 20.47C7.72 19.9 8.28 19.5 8.9 19.56L13.28 20C13.9 20.06 14.35 20.57 14.28 21.13C14.22 21.66 13.73 22.05 13.16 22.05Z" fill="#F8D57E" fill-opacity="1.000000" fill-rule="nonzero"/>
	<path id="Vector" d="M6.89 61.5C6.85 61.5 6.8 61.5 6.75 61.5L4.51 61.24C3.89 61.17 3.45 60.65 3.53 60.09C3.6 59.52 4.17 59.12 4.79 59.19L7.03 59.45C7.65 59.53 8.09 60.04 8.01 60.61C7.94 61.12 7.45 61.5 6.89 61.5Z" fill="#F8D57E" fill-opacity="1.000000" fill-rule="nonzero"/>
	<path id="Vector" d="M48.45 7.66L41.21 11.25C40.27 11.72 39.09 11.4 38.57 10.54C38.06 9.68 38.41 8.61 39.35 8.14L46.59 4.56C47.53 4.09 48.71 4.41 49.23 5.26C49.74 6.12 49.39 7.2 48.45 7.66Z" fill="#FFFFFF" fill-opacity="1.000000" fill-rule="nonzero"/>
	<path id="Vector" d="M55.9 46.62C55.9 49.4 53.42 51.66 50.36 51.66C47.3 51.66 44.81 49.4 44.81 46.62C44.81 43.83 47.3 41.57 50.36 41.57C53.42 41.57 55.9 43.83 55.9 46.62Z" fill="url(#paint_linear_2_350_0)" fill-opacity="1.000000" fill-rule="evenodd"/>
	<path id="Vector" d="M54.18 46.61C54.18 48.54 52.47 50.1 50.36 50.1C48.24 50.1 46.53 48.54 46.53 46.61C46.53 44.69 48.24 43.13 50.36 43.13C52.47 43.13 54.18 44.69 54.18 46.61Z" fill="url(#paint_linear_2_351_0)" fill-opacity="1.000000" fill-rule="evenodd"/>
</svg>
