<svg width="20.000000" height="20.000000" viewBox="0 0 20 20" fill="none" xmlns="http://www.w3.org/2000/svg" xmlns:xlink="http://www.w3.org/1999/xlink">
	<desc>
			Created with Pixso.
	</desc>
	<defs/>
	<rect id="Star" width="20.000000" height="20.000000" fill="#FFFFFF" fill-opacity="0"/>
	<path id="Star" d="M9.1 1.81L7.29 5.48C7.14 5.77 6.86 5.98 6.54 6.03L2.49 6.61C1.67 6.73 1.34 7.74 1.94 8.32L4.86 11.17C5.1 11.4 5.21 11.73 5.15 12.06L4.46 16.09C4.32 16.91 5.18 17.53 5.91 17.14L9.53 15.24C9.82 15.09 10.17 15.09 10.46 15.24L14.08 17.14C14.81 17.53 15.67 16.91 15.53 16.09L14.84 12.06C14.78 11.73 14.89 11.4 15.13 11.17L18.05 8.32C18.65 7.74 18.32 6.73 17.5 6.61L13.45 6.03C13.13 5.98 12.85 5.77 12.7 5.48L10.89 1.81C10.52 1.07 9.47 1.07 9.1 1.81Z" fill="#2B2B2B" fill-opacity="1.000000" fill-rule="evenodd"/>
</svg>
